PathFileType	4	(X/Y/Z)	/Users/itak/Documents/Research/Walk-IL/dataset/trc/00315_00010.trc
DataRate	CameraRate	NumFrames	NumMarkers	Units	OrigDataRate	OrigDataStartFrame	OrigNumFrames
100.000000	100.000000	4	53	mm	100.000000	335	537
Frame#	Time	RPSI			LPSI			L3			STRN			T10			C7			CLAV			RBAK			LBAK			LSHO			LUPA			LAEL			LAOL			LWTS			LWPS			LFRA			LIFD			LHPS			LHTS			RSHO			RUPA			RAEL			RAOL			RWTS			RWPS			RFRA			RIFD			RHTS			RHPS			RBHD			LFHD			RFHD			LBHD			LHIP			RHIP			RASI			LASI			LKNE			LTHI			LANK			LTIP			LTOE			LMT1			LMT5			LHEE			RKNE			RTHI			RANK			RTIP			RTOE			RMT1			RMT5			RHEE			
		X1	Y1	Z1	X2	Y2	Z2	X3	Y3	Z3	X4	Y4	Z4	X5	Y5	Z5	X6	Y6	Z6	X7	Y7	Z7	X8	Y8	Z8	X9	Y9	Z9	X10	Y10	Z10	X11	Y11	Z11	X12	Y12	Z12	X13	Y13	Z13	X14	Y14	Z14	X15	Y15	Z15	X16	Y16	Z16	X17	Y17	Z17	X18	Y18	Z18	X19	Y19	Z19	X20	Y20	Z20	X21	Y21	Z21	X22	Y22	Z22	X23	Y23	Z23	X24	Y24	Z24	X25	Y25	Z25	X26	Y26	Z26	X27	Y27	Z27	X28	Y28	Z28	X29	Y29	Z29	X30	Y30	Z30	X31	Y31	Z31	X32	Y32	Z32	X33	Y33	Z33	X34	Y34	Z34	X35	Y35	Z35	X36	Y36	Z36	X37	Y37	Z37	X38	Y38	Z38	X39	Y39	Z39	X40	Y40	Z40	X41	Y41	Z41	X42	Y42	Z42	X43	Y43	Z43	X44	Y44	Z44	X45	Y45	Z45	X46	Y46	Z46	X47	Y47	Z47	X48	Y48	Z48	X49	Y49	Z49	X50	Y50	Z50	X51	Y51	Z51	X52	Y52	Z52	X53	Y53	Z53	

336	3.35	226.0858764648438	990.85546875	170.1476745605469	400.6182250976562	975.6813354492188	161.4292449951172	312.4950866699219	1053.501220703125	180.6516571044922	346.7304077148438	1240.879028320312	420.6970825195312	304.5260009765625	1166.025634765625	161.9326477050781	326.8585510253906	1412.846069335938	192.9470367431641	342.4808349609375	1338.237182617188	352.9881591796875	240.2659454345703	1275.039306640625	157.4221038818359	427.2470092773438	1375.266967773438	166.0988159179688	493.7590026855469	1385.915649414062	246.9813385009766	559.1934204101562	1270.651733398438	202.36572265625	560.7042846679688	1067.302368164062	179.7028045654297	481.5371704101562	1060.84375	146.4666595458984	531.3472900390625	831.7579956054688	233.9324493408203	577.147216796875	825.6303100585938	179.3738555908203	569.9542846679688	962.7896728515625	175.0181121826172	509.383056640625	652.1754150390625	194.6477508544922	562.9395141601562	738.5318603515625	163.5598754882812	542.711669921875	730.030029296875	225.3761444091797	179.6827392578125	1394.91796875	282.5221557617188	112.1180648803711	1338.267822265625	294.8897399902344	51.05834197998047	1078.73779296875	353.0379333496094	110.611457824707	1058.180786132812	283.17236328125	189.3954162597656	893.89599609375	454.2160339355469	106.022331237793	877.6365966796875	469.5638122558594	63.58735656738281	1018.589538574219	396.3869934082031	222.8541259765625	719.9566040039062	516.5059814453125	211.7943420410156	795.3934326171875	519.4400024414062	142.951904296875	782.4550170898438	517.4799194335938	263.129150390625	1558.634155273438	198.7632598876953	374.2188415527344	1630.526245117188	366.5340881347656	282.0342712402344	1621.224731445312	362.4302062988281	409.284912109375	1562.912841796875	207.1587219238281	496.6026000976562	928.498779296875	227.3855895996094	126.2273178100586	943.4724731445312	276.9453430175781	204.7941131591797	948.49609375	394.0199279785156	455.1809997558594	947.0427856445312	367.62109375	502.579345703125	512.0127563476562	467.4521484375	515.6768798828125	638.1283569335938	400.2127685546875	542.4819946289062	70.88619995117188	366.6490478515625	535.01513671875	289.0846557617188	419.7626647949219	485.8887634277344	56.78213119506836	568.744140625	446.7174377441406	39.41896820068359	500.64013671875	555.4251098632812	60.08921051025391	486.5443725585938	483.1684875488281	65.58760833740234	320.9858093261719	210.5842437744141	466.8722839355469	305.264892578125	154.7408905029297	725.9569091796875	339.1321716308594	234.1946716308594	43.45917892456055	169.6431732177734	238.6894073486328	341.7785949707031	294.5045776367188	366.601806640625	38.93313598632812	322.5389404296875	375.7390441894531	36.49477005004883	251.1513671875	259.8017272949219	33.16455078125	273.0097045898438	255.3439636230469	40.35805511474609	101.6530075073242	
337	3.36	230.3478393554688	990.0216064453125	176.9971923828125	404.8485717773438	974.4373168945312	169.9469299316406	316.0367431640625	1053.222412109375	187.9847259521484	349.01904296875	1240.043212890625	428.1273803710938	307.3121643066406	1164.99169921875	169.6337890625	329.41748046875	1411.69091796875	200.5193786621094	345.0186767578125	1337.287963867188	360.3813781738281	242.9057006835938	1274.08056640625	165.0297393798828	429.8195190429688	1374.0302734375	173.5432434082031	496.3489990234375	1384.79248046875	254.4100494384766	561.878662109375	1270.021118164062	209.0054779052734	564.01708984375	1066.823486328125	185.0060882568359	485.1161193847656	1060.710815429688	150.9315643310547	532.861572265625	830.9691162109375	236.6370697021484	580.5009155273438	825.3430786132812	183.8275909423828	573.2797241210938	962.4715576171875	179.9506530761719	512.5944213867188	651.7984008789062	195.4021453857422	567.15625	738.363525390625	167.0323486328125	544.5258178710938	729.4095458984375	227.8649291992188	182.3621215820312	1394.278930664062	289.9305114746094	114.6526641845703	1337.891723632812	302.4360656738281	53.05273818969727	1078.606567382812	361.9731140136719	112.4054641723633	1057.66015625	292.1708679199219	195.6337432861328	898.3194580078125	465.3442687988281	112.7731094360352	880.604248046875	481.7573547363281	66.75218200683594	1019.299987792969	406.2057189941406	233.7798614501953	726.541015625	530.827392578125	220.9105224609375	801.7319946289062	532.3451538085938	152.4224700927734	787.1965942382812	531.409912109375	266.3245239257812	1557.734252929688	206.2946929931641	377.4669189453125	1629.309448242188	374.1622924804688	285.2572631835938	1620.26513671875	369.9837951660156	412.4373779296875	1561.602905273438	214.8057250976562	501.1122131347656	928.2635498046875	237.6663208007812	129.29833984375	943.017578125	282.8664245605469	206.8177337646484	947.6939086914062	400.4178466796875	457.4207458496094	946.2982177734375	376.54931640625	504.4136657714844	511.5581359863281	477.2436828613281	517.9356079101562	637.2411499023438	409.54736328125	547.4088134765625	66.13580322265625	400.6492919921875	538.4678955078125	286.9505615234375	441.2376403808594	486.2439270019531	62.52400207519531	601.5995483398438	448.673095703125	41.60553359985352	533.6448364257812	557.6437377929688	61.58522796630859	521.0968017578125	489.1926574707031	58.44609069824219	353.9415588378906	211.8122406005859	466.2380981445312	308.5853881835938	156.7396545410156	725.3258056640625	344.1402282714844	234.6076354980469	43.68971633911133	169.4161376953125	239.5007781982422	341.1622314453125	296.9429016113281	366.5296630859375	38.88388061523438	322.6648559570312	375.9607238769531	36.49740600585938	251.3339691162109	259.8842163085938	33.27078628540039	272.9129943847656	255.9890441894531	40.85464096069336	101.4367752075195	
338	3.37	234.5169219970703	989.0081176757812	183.9590911865234	408.9618225097656	972.9498291015625	178.4925537109375	319.5180358886719	1052.7255859375	195.3840026855469	351.3584594726562	1239.028564453125	435.5936279296875	310.1038208007812	1163.786743164062	177.2861633300781	331.9631042480469	1410.3525390625	208.1865997314453	347.572021484375	1336.167602539062	367.8135986328125	245.5894927978516	1272.9345703125	172.6495666503906	432.4337768554688	1372.626708984375	181.0366363525391	498.9634399414062	1383.498413085938	261.9031066894531	564.6104125976562	1269.207275390625	215.8189849853516	567.4474487304688	1066.194213867188	190.5874481201172	488.9221801757812	1060.413208007812	155.4548645019531	534.4204711914062	830.0508422851562	239.6369171142578	583.9598388671875	824.9306030273438	188.6543273925781	576.7252197265625	961.9749145507812	185.20166015625	516.277099609375	651.2327270507812	196.586181640625	571.643798828125	738.079833984375	170.9530944824219	546.6119995117188	728.6769409179688	230.7639007568359	185.04345703125	1393.403930664062	297.3719177246094	117.214973449707	1337.238647460938	309.9739990234375	55.06070327758789	1078.18017578125	370.6984252929688	114.3444519042969	1056.871826171875	301.0516052246094	201.6679229736328	902.5751953125	476.3159484863281	119.3509674072266	883.3683471679688	493.6192626953125	69.85782623291016	1019.736206054688	415.7727661132812	244.4336547851562	733.029541015625	544.6990356445312	229.6938018798828	807.897705078125	544.9253540039062	161.6088409423828	791.7455444335938	544.808837890625	269.5005798339844	1556.623901367188	213.8594207763672	380.7271728515625	1627.936889648438	381.7857971191406	288.4906311035156	1619.13525390625	377.5561828613281	415.5765075683594	1560.104858398438	222.4571990966797	505.3849182128906	927.60205078125	247.8207855224609	132.3190460205078	942.4544677734375	288.9544982910156	208.8615112304688	946.783935546875	406.9482421875	459.6390991210938	945.3468627929688	385.4630126953125	506.5033569335938	510.6748046875	486.6205139160156	520.3930053710938	636.0105590820312	418.5082397460938	551.4578247070312	62.20331573486328	434.2307434082031	541.6041259765625	284.9535827636719	462.2257385253906	485.7239379882812	68.96355438232422	633.4121704101562	449.6881103515625	44.64997863769531	565.8151245117188	558.9651489257812	63.75885391235352	554.8754272460938	494.3377075195312	52.24624252319336	386.6244812011719	213.0341186523438	465.5462646484375	311.9533996582031	158.6830139160156	724.6203002929688	349.2807312011719	235.1000213623047	43.91025543212891	169.1328277587891	240.3363647460938	340.4908142089844	299.4060363769531	366.4638977050781	38.84062576293945	322.8078002929688	376.2084655761719	36.49469375610352	251.5325469970703	259.9821166992188	33.39578247070312	272.7738342285156	256.7617797851562	41.36805725097656	101.1652755737305	
339	3.38	238.5922698974609	987.8087768554688	191.0342559814453	412.9603576660156	971.22705078125	187.0721282958984	322.9331359863281	1051.968627929688	202.8584289550781	353.7402038574219	1237.8427734375	443.106201171875	312.9205322265625	1162.4111328125	184.8893127441406	334.5192260742188	1408.84423828125	215.9321746826172	350.1415710449219	1334.878784179688	375.2874450683594	248.3277435302734	1271.607666015625	180.2707061767578	435.1021423339844	1371.064086914062	188.5890808105469	501.6126098632812	1382.036376953125	269.4720764160156	567.4020385742188	1268.207641601562	222.8131408691406	570.949462890625	1065.41552734375	196.3979339599609	492.8752746582031	1059.950561523438	160.0829925537109	536.1259155273438	828.9963989257812	242.9343719482422	587.4925537109375	824.3782958984375	193.7314453125	580.2537231445312	961.2964477539062	190.6815032958984	520.3851318359375	650.462158203125	198.2613372802734	576.3009033203125	737.662109375	175.2263641357422	549.0236206054688	727.8187866210938	234.0414428710938	187.7321166992188	1392.288940429688	304.838623046875	119.8128356933594	1336.296875	317.4986877441406	57.10377883911133	1077.44970703125	379.236572265625	116.4228897094727	1055.801025390625	309.8131103515625	207.5125732421875	906.6212158203125	487.1233215332031	125.7636489868164	885.906982421875	505.1765441894531	72.93077087402344	1019.885864257812	425.1144409179688	254.7781982421875	739.3619995117188	558.1302490234375	238.1365966796875	813.8370361328125	557.1824951171875	170.496337890625	796.0653686523438	557.7060546875	272.6633911132812	1555.30810546875	221.4573364257812	383.9968566894531	1626.4150390625	389.4100952148438	291.7306518554688	1617.838623046875	385.1467895507812	418.711181640625	1558.428833007812	230.1190032958984	509.3793640136719	926.4839477539062	257.8102722167969	135.2944488525391	941.771240234375	295.216064453125	210.9188537597656	945.7723999023438	413.6393737792969	461.8377685546875	944.2061767578125	394.3722534179688	508.8061218261719	509.3872680664062	495.641357421875	523.0465087890625	634.4620971679688	427.167724609375	554.6978759765625	59.07613372802734	467.1160888671875	544.4308471679688	283.0997314453125	482.6005859375	484.5482482910156	76.01279449462891	663.9974365234375	449.9471435546875	48.45165252685547	596.962158203125	559.5538940429688	66.57767486572266	587.633544921875	498.6430969238281	46.96376419067383	418.7673950195312	214.2412567138672	464.7958374023438	315.353271484375	160.5759887695312	723.8329467773438	354.5459594726562	235.6640014648438	44.11769104003906	168.7983856201172	241.1846618652344	339.7616882324219	301.8754272460938	366.4044494628906	38.80300903320312	322.9652709960938	376.470703125	36.49313354492188	251.7483978271484	260.0936889648438	33.53450775146484	272.5946044921875	257.6442260742188	41.89825820922852	100.8424911499023	
